<?xml version="1.0" encoding="utf-8"?>
<!-- Generator: Adobe Illustrator 21.0.0, SVG Export Plug-In . SVG Version: 6.00 Build 0)  -->
<svg version="1.1" xmlns="http://www.w3.org/2000/svg" xmlns:xlink="http://www.w3.org/1999/xlink" x="0px" y="0px"
	 viewBox="0 0 100 100" style="enable-background:new 0 0 100 100;" xml:space="preserve" height="20px" width="20px">
<style type="text/css">
	.st0{fill:#dbffa4;}
	.st1{fill:#265526;}
</style>
<g>
	<polygon class="st0" points="30.4,26.4 31.2,71.6 78.5,47.9 	"/>
	<g>
		<path class="st1" d="M28.9,26.8c0.3,15.1,0.5,30.1,0.8,45.2c0,0.7,2.1,0,2.3-0.1c15.8-7.9,31.5-15.8,47.3-23.7
			c0.3-0.2,0.9-0.6,0.3-0.9c-16-7.2-32.1-14.4-48.1-21.5c-0.7-0.3-3.3,0.8-2.4,1.2c14,6.3,27.9,12.5,41.9,18.8c2,0.9,4,2,6.1,2.7
			c-0.4-0.1,1.2-0.9-0.3-0.4c-1,0.3-2.1,1.1-3.1,1.5c-8.1,4-16.2,8.1-24.2,12.1c-6.4,3.2-12.8,6.4-19.2,9.6c0.8,0,1.5-0.1,2.3-0.1
			C32.4,56.1,32.1,41,31.8,26C31.8,25.3,28.9,25.8,28.9,26.8z"/>
	</g>
</g>
</svg>
